<svg xmlns="http://www.w3.org/2000/svg" width="48.031" height="63" viewBox="0 0 48.031 63">
  <defs>
    <style>
      .cls-1 {
        fill: #647585;
        fill-rule: evenodd;
      }
    </style>
  </defs>
  <path id="Forma_1" data-name="Forma 1" class="cls-1" d="M544.753,1068.92l-2.566-2.51a0.845,0.845,0,0,0-1.18,0l-0.337.33-2.369-2.32v-4.54a0.82,0.82,0,0,0-.585-0.78l-14.646-4.5a0.859,0.859,0,0,0-.839.2,0.821,0.821,0,0,0-.207.83l4.592,14.34a0.831,0.831,0,0,0,.8.57h4.634l2.369,2.33-0.337.32a0.839,0.839,0,0,0-.244.58,0.8,0.8,0,0,0,.244.58l2.566,2.51a0.846,0.846,0,0,0,1.181,0l6.928-6.78A0.81,0.81,0,0,0,544.753,1068.92Zm-12.362-.01h-4.366l-3.391-10.6,4.834,4.74a2.654,2.654,0,0,0,.5,3.15,2.8,2.8,0,0,0,3.9,0,2.666,2.666,0,0,0,0-3.82,2.817,2.817,0,0,0-3.217-.49l-4.834-4.73,10.817,3.32v4.28a0.794,0.794,0,0,0,.244.57l2.614,2.56-3.895,3.82-2.613-2.56A0.86,0.86,0,0,0,532.391,1068.91Zm-0.475-5.68a1.083,1.083,0,0,1,.769.31,1.043,1.043,0,0,1,0,1.5,1.1,1.1,0,0,1-1.538,0,1.045,1.045,0,0,1,0-1.5A1.087,1.087,0,0,1,531.916,1063.23Zm5.318,11.9-1.385-1.36,5.748-5.63,1.385,1.36Zm-7.668,14.04a3.484,3.484,0,0,0-3.34,2.44,28.042,28.042,0,0,1-16.6-7.72,27.068,27.068,0,0,1-8.078-16.14,3.393,3.393,0,0,0,0-6.5,27.067,27.067,0,0,1,8.078-16.15,28.088,28.088,0,0,1,16.6-7.71,3.413,3.413,0,1,0-.045-1.79h-16.62v-0.67a0.83,0.83,0,0,0-.835-0.82H505.7a0.83,0.83,0,0,0-.835.82v2.97a0.821,0.821,0,0,0,.835.81h3.027a0.821,0.821,0,0,0,.835-0.81v-0.67h9.852a29.713,29.713,0,0,0-10.956,6.71,28.9,28.9,0,0,0-7.211,11.28v-6.2h0.678a0.83,0.83,0,0,0,.835-0.82v-2.96a0.83,0.83,0,0,0-.835-0.82H498.9a0.829,0.829,0,0,0-.835.82v2.96a0.829,0.829,0,0,0,.835.82h0.678v12.18a3.4,3.4,0,0,0,0,6.59v12.19H498.9a0.821,0.821,0,0,0-.835.81v2.97a0.829,0.829,0,0,0,.835.82h3.026a0.83,0.83,0,0,0,.835-0.82v-2.97a0.821,0.821,0,0,0-.835-0.81h-0.678v-6.21a28.858,28.858,0,0,0,7.211,11.29,29.744,29.744,0,0,0,10.968,6.71h-9.864v-0.67a0.83,0.83,0,0,0-.835-0.82H505.7a0.83,0.83,0,0,0-.835.82v2.97a0.821,0.821,0,0,0,.835.81h3.027a0.821,0.821,0,0,0,.835-0.81v-0.67h16.621A3.477,3.477,0,1,0,529.566,1089.17Zm0-54.53a1.775,1.775,0,1,1-1.817,1.77A1.793,1.793,0,0,1,529.566,1034.64Zm-30.9,29.86a1.817,1.817,0,1,1,1.817,1.78A1.8,1.8,0,0,1,498.668,1064.5Zm30.9,29.86a1.775,1.775,0,1,1,1.817-1.78A1.8,1.8,0,0,1,529.566,1094.36Z" transform="translate(-497 -1033)"/>
</svg>
