<svg xmlns="http://www.w3.org/2000/svg" width="65" height="61" viewBox="0 0 65 61">
  <defs>
    <style>
      .cls-1 {
        fill: #647585;
        fill-rule: evenodd;
      }
    </style>
  </defs>
  <path class="cls-1" d="M825.762,1089.5a1.079,1.079,0,0,0-1.313.79l-1.083,4.36a1.092,1.092,0,0,0,.789,1.32,1.179,1.179,0,0,0,.263.03,1.083,1.083,0,0,0,1.049-.83l1.084-4.35A1.083,1.083,0,0,0,825.762,1089.5ZM812.5,1067.68a1.176,1.176,0,0,0,.414-0.08l11.917-4.96a1.092,1.092,0,0,0-.83-2.02l-11.5,4.79-30.333-12.62v-0.36a1.084,1.084,0,1,0-2.167,0v1.09a1.072,1.072,0,0,0,.67,1l31.416,13.07A1,1,0,0,0,812.5,1067.68Zm12.887,11.16a1.086,1.086,0,0,0-1.45-.5,24.975,24.975,0,0,1-10.354,2.38v-9.77a1.083,1.083,0,1,0-2.166,0v9.76c-13.452-.43-17.793-8.63-18.417-9.99v-7.4a1.083,1.083,0,1,0-2.166,0v7.63a1.134,1.134,0,0,0,.076.4c0.189,0.47,4.8,11.58,21.59,11.58a27.726,27.726,0,0,0,12.4-2.63A1.091,1.091,0,0,0,825.387,1078.84Zm3.363,11.71a1.087,1.087,0,0,0-1.083,1.09v3.27a1.083,1.083,0,1,0,2.166,0v-3.27A1.087,1.087,0,0,0,828.75,1090.55Zm15.167-39.21a1.088,1.088,0,0,0-1.084,1.09v0.36l-13,5.38v-1.97l14.5-6.03a1.1,1.1,0,0,0,0-2.02l-31.418-13.07a1.08,1.08,0,0,0-.828,0l-31.416,13.07a1.1,1.1,0,0,0,0,2.02l31.416,13.07a1.111,1.111,0,0,0,.828,0l11.36-4.73a1.087,1.087,0,0,0-.828-2.01l-10.946,4.55-28.584-11.89,28.584-11.89,28.584,11.89-12.438,5.18-11.913-4.48a2.608,2.608,0,0,0,.1-0.7c0-1.83-1.9-3.27-4.333-3.27s-4.333,1.44-4.333,3.27,1.9,3.27,4.333,3.27a5.21,5.21,0,0,0,2.8-.78l12.363,4.64v3.49h0v23.35a3.25,3.25,0,1,0,2.166,0v-6.18a13.233,13.233,0,0,0,4.274-5.65,1.054,1.054,0,0,0,.059-0.35v-7.63a1.083,1.083,0,1,0-2.166,0v7.42a11.108,11.108,0,0,1-2.167,3.3v-13.52l14.5-6a1.071,1.071,0,0,0,.671-1v-1.09A1.087,1.087,0,0,0,843.917,1051.34Zm-31.417-1.09c-1.323,0-2.167-.65-2.167-1.09s0.844-1.09,2.167-1.09,2.167,0.65,2.167,1.09S813.823,1050.25,812.5,1050.25Zm16.25,37.04a1.09,1.09,0,1,1,1.083-1.09A1.088,1.088,0,0,1,828.75,1087.29Zm4.3,3a1.084,1.084,0,1,0-2.1.53l1.083,4.35a1.085,1.085,0,0,0,1.05.83,1.179,1.179,0,0,0,.263-0.03,1.092,1.092,0,0,0,.789-1.32Z" transform="translate(-780 -1035)"/>
</svg>
