<svg xmlns="http://www.w3.org/2000/svg" width="64" height="53" viewBox="0 0 64 53">
  <defs>
    <style>
      .cls-1 {
        fill: #647585;
        fill-rule: evenodd;
      }
    </style>
  </defs>
  <path id="Forma_1" data-name="Forma 1" class="cls-1" d="M1127.19,1043a8.665,8.665,0,1,0,0,17.33,8.762,8.762,0,0,0,8.81-8.7A8.672,8.672,0,0,0,1127.19,1043Zm0,15.42a6.761,6.761,0,1,1,6.88-6.73A6.829,6.829,0,0,1,1127.19,1058.42Zm2.78-5.42a1.616,1.616,0,0,0-.18-0.47,1.551,1.551,0,0,0-.25-0.42c-0.12-.12-0.18-0.24-0.3-0.36a1.055,1.055,0,0,0-.42-0.29,1.5,1.5,0,0,0-.42-0.24c-0.18-.06-0.3-0.18-0.49-0.24a4.134,4.134,0,0,1-.48-0.18,0.455,0.455,0,0,1-.24-0.12c-0.06-.06-0.18-0.06-0.24-0.12s-0.18-.06-0.24-0.12l-0.18-.18a0.274,0.274,0,0,1-.13-0.23,0.361,0.361,0,0,1-.06-0.24v-0.3c0-.06.06-0.18,0.06-0.24,0.06-.06.06-0.18,0.13-0.24s0.12-.12.18-0.17a0.458,0.458,0,0,1,.3-0.12,0.541,0.541,0,0,1,.3-0.06h0.36a0.541,0.541,0,0,1,.3.06,2.435,2.435,0,0,1,.31.06c0.06,0,.18.06,0.24,0.06a1.587,1.587,0,0,1,.24.05l0.3,0.12,0.06-.35,0.12-.96v-0.23l-0.24-.06c-0.06,0-.18-0.06-0.24-0.06a1.361,1.361,0,0,0-.24-0.06,2.6,2.6,0,0,0-.3-0.06c-0.12,0-.19-0.06-0.31-0.06h-0.06v-1.13h-1.45v1.19h-0.06a2.131,2.131,0,0,0-.54.24,1.055,1.055,0,0,0-.42.29,2.61,2.61,0,0,0-.36.42,1.22,1.22,0,0,0-.25.48c-0.06.18-.12,0.35-0.18,0.53a2.041,2.041,0,0,0-.06.6,1.243,1.243,0,0,0,.06.47,1.568,1.568,0,0,0,.18.48c0.06,0.12.19,0.3,0.25,0.42,0.12,0.12.18,0.24,0.3,0.36a1.167,1.167,0,0,0,.42.29,1.5,1.5,0,0,0,.42.24,3.744,3.744,0,0,1,.49.24,4.134,4.134,0,0,1,.48.18,0.455,0.455,0,0,1,.24.12c0.06,0.06.18,0.06,0.24,0.12a0.318,0.318,0,0,0,.18.12c0.06,0.05.12,0.11,0.18,0.17a1.228,1.228,0,0,1,.13.24,2.6,2.6,0,0,1,.06.3v0.3a0.412,0.412,0,0,1-.13.24c-0.06.06-.12,0.11-0.18,0.17a0.828,0.828,0,0,1-.24.18c-0.06.06-.18,0.06-0.24,0.12a2.6,2.6,0,0,1-.3.06h-0.79a2.6,2.6,0,0,1-.3-0.06,0.853,0.853,0,0,1-.36-0.12c-0.12-.06-0.24-0.06-0.36-0.12-0.06,0-.12-0.06-0.18-0.06s-0.12-.06-0.18-0.06l-0.37-.17-0.06.41-0.12,1.08v0.17l0.18,0.06a0.832,0.832,0,0,1,.55.06,1.112,1.112,0,0,0,.42.12c0.12,0.06.3,0.06,0.48,0.12a1.321,1.321,0,0,0,.48.06h0.13v1.19h1.44v-1.25h0.07a2.131,2.131,0,0,0,.54-0.24,2.455,2.455,0,0,0,.48-0.29,2.61,2.61,0,0,0,.36-0.42,4.487,4.487,0,0,0,.31-0.48c0.06-.18.12-0.36,0.18-0.53a1.85,1.85,0,0,0,.06-0.6A1.321,1.321,0,0,0,1129.97,1053Zm-7.01,8.46a1.033,1.033,0,0,0-1.39-.18l-9.78,7.68-12.61-5.18a0.973,0.973,0,0,0-.91.12l-13.52,9.53a0.94,0.94,0,0,0-.25,1.31,0.9,0.9,0,0,0,.79.42,0.968,0.968,0,0,0,.54-0.18l13.1-9.23,12.68,5.18a1.1,1.1,0,0,0,.97-0.12l10.2-7.98A1,1,0,0,0,1122.96,1061.46Zm14.13,32.63h-4.47v-27.57a0.946,0.946,0,0,0-.96-0.95h-8.88a0.946,0.946,0,0,0-.96.95v27.57h-3.26v-18.04a0.948,0.948,0,0,0-.97-0.95h-8.94a0.939,0.939,0,0,0-.96.95v18.04h-3.26v-19.47a0.942,0.942,0,0,0-.97-0.95h-8.87a0.942,0.942,0,0,0-.97.95v19.47h-3.26v-13.87a0.939,0.939,0,0,0-.96-0.95h-8.94a0.948,0.948,0,0,0-.97.95v13.87h-4.52a0.955,0.955,0,1,0,0,1.91h62.06a0.954,0.954,0,0,0,.97-0.95A0.874,0.874,0,0,0,1137.09,1094.09Zm-48.72,0h-6.94v-12.92h6.94v12.92Zm14.13,0h-6.95v-18.52h6.95v18.52Zm14.06,0h-6.94V1077h6.94v17.09Zm14.13,0h-6.94v-26.62h6.94v26.62Z" transform="translate(-1074 -1043)"/>
</svg>
