<svg xmlns="http://www.w3.org/2000/svg" width="30" height="33" viewBox="0 0 30 33">
  <defs>
    <style>
      .cls-1 {
        fill: #fff;
        fill-rule: evenodd;
      }
    </style>
  </defs>
  <path class="cls-1" d="M702.427,2392.21l-6.927-3.91a0.491,0.491,0,0,0-.115-0.04l-6.7-3.76-14.828-7.44a1.07,1.07,0,0,0-.168-0.05,0.58,0.58,0,0,0-.186,0,0.444,0.444,0,0,0-.223.07,0.505,0.505,0,0,0-.282.48v31.88a0.581,0.581,0,0,0,.286.5,0.413,0.413,0,0,0,.286.06,0.5,0.5,0,0,0,.287-0.06l14.828-8.05,6.517-3.69h0.01a0.4,0.4,0,0,0,.286-0.17h0a0.541,0.541,0,0,0,.133-0.07l6.794-3.84a1.085,1.085,0,0,0,.573-0.96A1.158,1.158,0,0,0,702.427,2392.21Zm-28.282-13.36,15.736,14.36-15.736,14.86v-29.22Zm20.152,10.06-2,1.99-1.555,1.54-6.9-6.27-6.836-6.23,11.1,5.51Zm-6.183,12.03-11,5.93,10.429-9.85,3.2-3.01,3.521,3.48Zm7.2-4.05-3.709-3.67,3.73-3.69,6.524,3.69Z" transform="translate(-673 -2377)"/>
</svg>
