<svg xmlns="http://www.w3.org/2000/svg" width="18" height="21" viewBox="0 0 18 21">
  <defs>
    <style>
      .cls-1 {
        fill: #8b91dd;
        fill-rule: evenodd;
      }
    </style>
  </defs>
  <path id="Forma_1" data-name="Forma 1" class="cls-1" d="M540.388,432.283a0.377,0.377,0,0,1,.371-0.386h1.275a4.621,4.621,0,0,0,1.785.753,0.3,0.3,0,0,1-.079.017h-2.981A0.377,0.377,0,0,1,540.388,432.283Zm-0.907-3.081h0.662a4.811,4.811,0,0,1-.152-0.77h-0.51A0.385,0.385,0,0,0,539.481,429.2Zm-2.73-9.726a1.944,1.944,0,0,1-.769-1.511,1.393,1.393,0,1,1,2.784,0,1.945,1.945,0,0,1-.77,1.511,2.5,2.5,0,0,1,1.9,2c0,0.861-5.043.861-5.043,0A2.493,2.493,0,0,1,536.751,419.476Zm-0.085,1.912,0.707,0.732,0.708-.732-0.6-1.492h0l0.232-.274a1.011,1.011,0,0,1-.35.066,0.993,0.993,0,0,1-.349-0.067l0.231,0.275h0.006Zm9.319,12.766,0,0-0.018-.032c-0.009,0-.017,0-0.026,0H533.019a1.236,1.236,0,0,1-1.211-1.257V416.1a1.236,1.236,0,0,1,1.211-1.257h12.924a1.237,1.237,0,0,1,1.212,1.257v7.673a4.743,4.743,0,0,1,.808.659V416.1a2.06,2.06,0,0,0-2.02-2.1H533.019a2.06,2.06,0,0,0-2.02,2.1v16.766a2.06,2.06,0,0,0,2.02,2.094h12.924a1.929,1.929,0,0,0,.458-0.06Zm-10.762-6.707h4.759a5.214,5.214,0,0,1,.126-0.77h-4.884A0.385,0.385,0,0,0,535.223,427.447Zm0-3.51h6.669a4.877,4.877,0,0,1,.412-0.279,4.617,4.617,0,0,1,1.157-.492h-8.238A0.386,0.386,0,0,0,535.223,423.937Zm0,1.755h5.236a4.932,4.932,0,0,1,.459-0.771h-5.7A0.386,0.386,0,0,0,535.223,425.692Zm12.677,0.234a3.978,3.978,0,0,1-1.375,5.319,3.682,3.682,0,0,1-5.126-1.425,3.982,3.982,0,0,1,1.372-5.32A3.685,3.685,0,0,1,547.9,425.926Zm-0.537.323a3.077,3.077,0,0,0-4.279-1.191,3.319,3.319,0,0,0-1.146,4.44,3.074,3.074,0,0,0,4.278,1.191A3.324,3.324,0,0,0,547.363,426.249Zm0.106,4.757-1.613.967,1.242,2.232,1.613-.966Zm1.411,2.537-1.615.966a0.915,0.915,0,0,0,1.274.355A0.986,0.986,0,0,0,548.88,433.543Z" transform="translate(-531 -414)"/>
</svg>
