<svg xmlns="http://www.w3.org/2000/svg" width="30" height="37" viewBox="0 0 30 37">
  <defs>
    <style>
      .cls-1 {
        fill: #fff;
        fill-rule: evenodd;
      }
    </style>
  </defs>
  <path class="cls-1" d="M413.548,2386.6c-3.1,5.43-1.131,13.67,2.3,18.66,1.714,2.5,3.448,4.74,5.824,4.74h0.135a7.147,7.147,0,0,0,2.7-.73,7.3,7.3,0,0,1,3.2-.76,6.83,6.83,0,0,1,3.047.74,6.574,6.574,0,0,0,2.919.7c2.676-.05,4.319-2.47,5.768-4.6a20.451,20.451,0,0,0,2.528-5.22l0.01-.03a0.3,0.3,0,0,0-.16-0.37,0.022,0.022,0,0,0-.022-0.01,7.744,7.744,0,0,1-4.648-7.08,7.982,7.982,0,0,1,3.731-6.66l0.029-.01a0.326,0.326,0,0,0,.132-0.2,0.3,0.3,0,0,0-.046-0.23,8.664,8.664,0,0,0-6.829-3.74,5.858,5.858,0,0,0-.6-0.03,11.837,11.837,0,0,0-4.286,1.08,6.918,6.918,0,0,1-2.053.62,6.588,6.588,0,0,1-2.124-.63,10.206,10.206,0,0,0-3.744-.95h-0.095A9.154,9.154,0,0,0,413.548,2386.6Zm20.625-13.6a8.349,8.349,0,0,0-5.533,2.86,7.957,7.957,0,0,0-1.988,5.87,0.3,0.3,0,0,0,.275.26c0.128,0.01.259,0.02,0.389,0.02a7.091,7.091,0,0,0,5.223-2.7,8.4,8.4,0,0,0,1.946-6.04A0.3,0.3,0,0,0,434.173,2373Z" transform="translate(-412 -2373)"/>
</svg>
