<svg xmlns="http://www.w3.org/2000/svg" width="12.969" height="9" viewBox="0 0 12.969 9">
  <defs>
    <style>
      .cls-1 {
        fill: #fb236a;
        fill-rule: evenodd;
      }
    </style>
  </defs>
  <path id="Forma_1_copy" data-name="Forma 1 copy" class="cls-1" d="M755.253,1645.9a0.464,0.464,0,0,0,.654,0,0.452,0.452,0,0,0,0-.64l-3.319-3.28h10.954a0.454,0.454,0,0,0,.458-0.46,0.46,0.46,0,0,0-.458-0.46H752.588l3.319-3.27a0.452,0.452,0,0,0,0-.64,0.446,0.446,0,0,0-.654,0l-4.106,4.05a0.442,0.442,0,0,0,0,.64Z" transform="translate(-751.031 -1637.03)"/>
</svg>
