<svg xmlns="http://www.w3.org/2000/svg" width="16" height="22" viewBox="0 0 16 22">
  <defs>
    <style>
      .cls-1 {
        fill: #fb236a;
        fill-rule: evenodd;
      }
    </style>
  </defs>
  <path id="Forma_1_copy" data-name="Forma 1 copy" class="cls-1" d="M967.76,803.8a0.758,0.758,0,0,0,0-1.107,0.829,0.829,0,0,0-1.134,0l-5.809,5.618V789.775a0.785,0.785,0,0,0-.8-0.775,0.793,0.793,0,0,0-.813.775v18.538l-5.8-5.618a0.844,0.844,0,0,0-1.146,0,0.758,0.758,0,0,0,0,1.107l7.184,6.948a0.808,0.808,0,0,0,1.134,0Z" transform="translate(-952.031 -789)"/>
</svg>
