<svg xmlns="http://www.w3.org/2000/svg" width="13" height="8.97" viewBox="0 0 13 8.97">
  <defs>
    <style>
      .cls-1 {
        fill: #fb236a;
        fill-rule: evenodd;
      }
    </style>
  </defs>
  <path id="Forma_1" data-name="Forma 1" class="cls-1" d="M1166.75,1637.13a0.471,0.471,0,0,0-.66,0,0.465,0.465,0,0,0,0,.64l3.32,3.27h-10.95a0.45,0.45,0,0,0-.46.45,0.459,0.459,0,0,0,.46.46h10.95l-3.32,3.26a0.478,0.478,0,0,0,0,.65,0.471,0.471,0,0,0,.66,0l4.1-4.05a0.419,0.419,0,0,0,0-.63Z" transform="translate(-1158 -1637.03)"/>
</svg>
