<svg xmlns="http://www.w3.org/2000/svg" width="19" height="21" viewBox="0 0 19 21">
  <defs>
    <style>
      .cls-1 {
        fill: #8b91dd;
        fill-rule: evenodd;
      }
    </style>
  </defs>
  <path id="Forma_1" data-name="Forma 1" class="cls-1" d="M694.661,414.4h-2.375v-1.05a0.345,0.345,0,0,0-.34-0.35h-2.375a0.344,0.344,0,0,0-.339.35v1.05h-7.464v-1.05a0.345,0.345,0,0,0-.34-0.35h-2.375a0.344,0.344,0,0,0-.339.35v1.05h-2.375a0.344,0.344,0,0,0-.339.35v18.9a0.345,0.345,0,0,0,.339.35h18.322a0.345,0.345,0,0,0,.339-0.35v-18.9A0.344,0.344,0,0,0,694.661,414.4Zm-4.75-.7h1.7v2.1h-1.7v-2.1Zm-10.518,0h1.7v2.1h-1.7v-2.1Zm-2.714,1.4h2.035v1.05a0.345,0.345,0,0,0,.339.35h2.375a0.345,0.345,0,0,0,.34-0.35V415.1h7.464v1.05a0.345,0.345,0,0,0,.339.35h2.375a0.345,0.345,0,0,0,.34-0.35V415.1h2.035v3.15H676.679V415.1Zm0,18.2V418.95h17.642V433.3H676.679Zm11.535-12.25h-9.161V431.2h12.893V421.05h-3.732Zm-2.375.7h2.375v2.45h-2.375v-2.45Zm2.375,5.6h-2.375V424.9h2.375v2.45Zm-5.428-2.45h2.375v2.45h-2.375V424.9Zm0-3.15h2.375v2.45h-2.375v-2.45Zm-3.054,0h2.375v2.45h-2.375v-2.45Zm0,3.15h2.375v2.45h-2.375V424.9Zm2.375,5.6h-2.375v-2.45h2.375v2.45Zm3.054,0h-2.375v-2.45h2.375v2.45Zm3.053,0h-2.375v-2.45h2.375v2.45Zm3.054,0h-2.375v-2.45h2.375v2.45Zm0-3.15h-2.375V424.9h2.375v2.45Zm0-5.6v2.45h-2.375v-2.45h2.375Z" transform="translate(-676 -413)"/>
</svg>
