<svg xmlns="http://www.w3.org/2000/svg" width="48" height="46" viewBox="0 0 48 46">
  <defs>
    <style>
      .cls-1 {
        fill: #647585;
        fill-rule: evenodd;
      }
    </style>
  </defs>
  <path id="Forma_1" data-name="Forma 1" class="cls-1" d="M1396.25,4428.89l-2.45-2.42a2.584,2.584,0,0,0-3.61,0l-13.2,13.05-1.81,6.59-0.45.44a0.851,0.851,0,0,0,0,1.2l-0.01.01h0.02a0.87,0.87,0,0,0,1.2,0l0.45-.45,6.67-1.79,13.19-13.05A2.511,2.511,0,0,0,1396.25,4428.89Zm-17.28,11.07,8.78-8.68,3.64,3.59-8.78,8.69Zm-0.77,1.63,2.76,2.73-3.8,1.03Zm16.84-10.32-2.44,2.41-3.63-3.6,2.43-2.41a0.858,0.858,0,0,1,1.19,0l2.45,2.42A0.827,0.827,0,0,1,1395.04,4431.27Zm-22.9-19.1a0.845,0.845,0,1,0,0,1.69h15.43a0.845,0.845,0,1,0,0-1.69h-15.43Zm16.29,12.72a0.858,0.858,0,0,0-.86-0.85h-15.43a0.845,0.845,0,1,0,0,1.69h15.43A0.856,0.856,0,0,0,1388.43,4424.89Zm-21.79-16.76a0.866,0.866,0,0,0-1.21.1l-5.36,6.17-3.27-2.43a0.868,0.868,0,0,0-1.2.17,0.838,0.838,0,0,0,.17,1.19l3.92,2.91a0.867,0.867,0,0,0,.51.17,0.849,0.849,0,0,0,.65-0.3l5.88-6.78A0.844,0.844,0,0,0,1366.64,4408.13Zm0,11.87a0.875,0.875,0,0,0-1.21.09l-5.36,6.18-3.27-2.43a0.868,0.868,0,0,0-1.2.17,0.838,0.838,0,0,0,.17,1.19l3.92,2.91a0.867,0.867,0,0,0,.51.17,0.884,0.884,0,0,0,.65-0.3l5.88-6.78A0.844,0.844,0,0,0,1366.64,4420Zm-1.21,12.81-5.36,6.18-3.27-2.43a0.859,0.859,0,0,0-1.2.17,0.828,0.828,0,0,0,.17,1.18l3.92,2.91a0.8,0.8,0,0,0,.51.17,0.849,0.849,0,0,0,.65-0.3l5.88-6.78a0.833,0.833,0,0,0-.09-1.19A0.856,0.856,0,0,0,1365.43,4432.81Zm5,13.27h-11a8.683,8.683,0,0,1-8.72-8.63v-25.13a8.683,8.683,0,0,1,8.72-8.63h25.42a8.683,8.683,0,0,1,8.72,8.63v10.02a0.855,0.855,0,0,0,1.71,0v-10.02a10.4,10.4,0,0,0-10.43-10.33h-25.42a10.4,10.4,0,0,0-10.43,10.33v25.13a10.388,10.388,0,0,0,10.43,10.32h11A0.845,0.845,0,1,0,1370.43,4446.08Z" transform="translate(-1349 -4402)"/>
</svg>
