<svg xmlns="http://www.w3.org/2000/svg" width="23" height="16" viewBox="0 0 23 16">
  <defs>
    <style>
      .cls-1 {
        fill: #fb236a;
        fill-rule: evenodd;
      }
    </style>
  </defs>
  <path id="Forma_1" data-name="Forma 1" class="cls-1" d="M1110.62,402.358a0.363,0.363,0,0,1-.25-0.1l-4.27-3.918a0.356,0.356,0,0,1-.02-0.512,0.382,0.382,0,0,1,.53-0.016l4.27,3.918a0.356,0.356,0,0,1,.01.512A0.363,0.363,0,0,1,1110.62,402.358Zm-14.24,0a0.363,0.363,0,0,1-.27-0.115,0.356,0.356,0,0,1,.01-0.512l4.27-3.918a0.383,0.383,0,0,1,.53.016,0.356,0.356,0,0,1-.02.512l-4.27,3.918A0.363,0.363,0,0,1,1096.38,402.358ZM1113.15,406h-19.3a1.834,1.834,0,0,1-1.85-1.815V391.813a1.835,1.835,0,0,1,1.85-1.815h19.3a1.835,1.835,0,0,1,1.85,1.815v12.373A1.834,1.834,0,0,1,1113.15,406Zm-19.3-15.277a1.1,1.1,0,0,0-1.11,1.089v12.373a1.1,1.1,0,0,0,1.11,1.089h19.3a1.1,1.1,0,0,0,1.11-1.089V391.813a1.1,1.1,0,0,0-1.11-1.089h-19.3Zm9.65,9.1a2.093,2.093,0,0,1-1.36-.48l-9.52-8.13a0.35,0.35,0,0,1-.04-0.513,0.374,0.374,0,0,1,.52-0.035l9.53,8.13a1.4,1.4,0,0,0,1.74,0l9.51-8.116a0.384,0.384,0,0,1,.53.034,0.358,0.358,0,0,1-.04.513l-9.51,8.116A2.089,2.089,0,0,1,1103.5,399.823Z" transform="translate(-1092 -390)"/>
</svg>
