<svg xmlns="http://www.w3.org/2000/svg" width="29" height="27" viewBox="0 0 29 27">
  <defs>
    <style>
      .cls-1 {
        fill: #8b91dd;
        fill-rule: evenodd;
      }
    </style>
  </defs>
  <path class="cls-1" d="M1214.42,927.118a0.489,0.489,0,0,0-.59.351l-0.48,1.931a0.476,0.476,0,0,0,.35.585,0.449,0.449,0,0,0,.12.015,0.5,0.5,0,0,0,.47-0.365l0.48-1.931A0.485,0.485,0,0,0,1214.42,927.118Zm-5.92-9.667a0.43,0.43,0,0,0,.18-0.037l5.32-2.2a0.483,0.483,0,0,0-.37-0.892l-5.13,2.121-13.53-5.592v-0.16a0.485,0.485,0,0,0-.97,0v0.482a0.484,0.484,0,0,0,.3.446l14.02,5.792A0.43,0.43,0,0,0,1208.5,917.451Zm5.75,4.945a0.486,0.486,0,0,0-.65-0.219,11.289,11.289,0,0,1-4.62,1.052V918.9a0.48,0.48,0,1,0-.96,0v4.325c-6-.191-7.94-3.821-8.22-4.425V915.52a0.485,0.485,0,0,0-.97,0V918.9a0.378,0.378,0,0,0,.04.179c0.08,0.209,2.14,5.13,9.63,5.13a12.432,12.432,0,0,0,5.53-1.166A0.48,0.48,0,0,0,1214.25,922.4Zm1.5,5.191a0.478,0.478,0,0,0-.48.482v1.448a0.48,0.48,0,1,0,.96,0v-1.448A0.478,0.478,0,0,0,1215.75,927.587Zm6.77-17.376a0.487,0.487,0,0,0-.49.483v0.159l-5.8,2.384v-0.872l6.47-2.673a0.482,0.482,0,0,0,0-.892l-14.02-5.792a0.459,0.459,0,0,0-.36,0L1194.3,908.8a0.482,0.482,0,0,0,0,.892l14.02,5.792a0.468,0.468,0,0,0,.36,0l5.07-2.1a0.471,0.471,0,0,0,.26-0.63,0.481,0.481,0,0,0-.63-0.261l-4.88,2.017-12.75-5.269,12.75-5.27,12.75,5.27-5.55,2.293-5.31-1.982a1.075,1.075,0,0,0,.04-0.311,2.01,2.01,0,1,0-1.93,1.448,2.334,2.334,0,0,0,1.25-.344l5.52,2.056v1.547h0V924.3a1.45,1.45,0,1,0,.96,0v-2.74a5.84,5.84,0,0,0,1.91-2.5,0.43,0.43,0,0,0,.03-0.158v-3.378a0.485,0.485,0,0,0-.97,0v3.289a4.743,4.743,0,0,1-.97,1.458v-5.987l6.47-2.658a0.485,0.485,0,0,0,.3-0.447v-0.482A0.485,0.485,0,0,0,1222.52,910.211Zm-14.02-.483a0.605,0.605,0,1,1,.97-0.482A0.905,0.905,0,0,1,1208.5,909.728Zm7.25,16.411a0.483,0.483,0,1,1,.48-0.483A0.479,0.479,0,0,1,1215.75,926.139Zm1.92,1.33a0.484,0.484,0,0,0-.94.235l0.48,1.931a0.5,0.5,0,0,0,.47.365,0.449,0.449,0,0,0,.12-0.015,0.476,0.476,0,0,0,.35-0.585Z" transform="translate(-1194 -903)"/>
</svg>
