<svg xmlns="http://www.w3.org/2000/svg" width="21" height="20" viewBox="0 0 21 20">
  <defs>
    <style>
      .cls-1 {
        fill: #888;
        fill-rule: evenodd;
      }
    </style>
  </defs>
  <path id="Forma_1" data-name="Forma 1" class="cls-1" d="M1405.97,1563.96c-0.31-3.46-2.7-5.96-5.69-5.96a5.624,5.624,0,0,0-4.84,2.85,5.418,5.418,0,0,0-4.72-2.85c-2.99,0-5.38,2.5-5.69,5.96a6.51,6.51,0,0,0,.18,2.27,9.706,9.706,0,0,0,2.91,4.97l7.32,6.8,7.44-6.8a9.775,9.775,0,0,0,2.91-4.97A6.51,6.51,0,0,0,1405.97,1563.96Zm-0.97,2.08a8.886,8.886,0,0,1-2.66,4.54l-6.9,6.31-6.78-6.3a8.885,8.885,0,0,1-2.66-4.55,5.458,5.458,0,0,1-.17-1.95v-0.04c0.27-3.03,2.32-5.23,4.89-5.23a4.753,4.753,0,0,1,4.35,3.11l0.37,0.91,0.37-.91a4.879,4.879,0,0,1,4.47-3.11c2.57,0,4.62,2.2,4.89,5.27A5.458,5.458,0,0,1,1405,1566.04Zm-13.54-5.53a4.1,4.1,0,0,0-4.04,4.14,0.405,0.405,0,1,0,.81,0,3.272,3.272,0,0,1,3.23-3.31A0.415,0.415,0,0,0,1391.46,1560.51Z" transform="translate(-1385 -1558)"/>
</svg>
