<svg xmlns="http://www.w3.org/2000/svg" width="32" height="24" viewBox="0 0 32 24">
  <defs>
    <style>
      .cls-1 {
        fill: #fb236a;
        fill-rule: evenodd;
      }
    </style>
  </defs>
  <path id="Forma_1" data-name="Forma 1" class="cls-1" d="M954.049,486.907H941.7a0.549,0.549,0,1,0,0,1.1h12.351A0.549,0.549,0,1,0,954.049,486.907Zm-3.743-7.627h-1.123a0.549,0.549,0,1,0,0,1.1h1.123A0.549,0.549,0,1,0,950.306,479.28Zm3.743,0h-1.124a0.549,0.549,0,1,0,0,1.1h1.124A0.549,0.549,0,1,0,954.049,479.28Zm3.7,0h-1.123a0.549,0.549,0,1,0,0,1.1h1.123A0.549,0.549,0,1,0,957.745,479.28Zm-11.182,0H945.44a0.549,0.549,0,1,0,0,1.1h1.123A0.549,0.549,0,1,0,946.563,479.28Zm-3.707,0h-1.123a0.549,0.549,0,1,0,0,1.1h1.123A0.549,0.549,0,1,0,942.856,479.28Zm-3.72,0h-1.123a0.549,0.549,0,1,0,0,1.1h1.123A0.549,0.549,0,1,0,939.136,479.28Zm11.17,2.539h-1.123a0.55,0.55,0,1,0,0,1.1h1.123A0.55,0.55,0,1,0,950.306,481.819Zm3.743,0h-1.124a0.55,0.55,0,1,0,0,1.1h1.124A0.55,0.55,0,1,0,954.049,481.819Zm3.7,0h-1.123a0.55,0.55,0,1,0,0,1.1h1.123A0.55,0.55,0,1,0,957.745,481.819Zm-11.182,0H945.44a0.55,0.55,0,1,0,0,1.1h1.123A0.55,0.55,0,1,0,946.563,481.819Zm-3.707,0h-1.123a0.55,0.55,0,1,0,0,1.1h1.123A0.55,0.55,0,1,0,942.856,481.819Zm-3.72,0h-1.123a0.55,0.55,0,1,0,0,1.1h1.123A0.55,0.55,0,1,0,939.136,481.819Zm11.17,2.541h-1.123a0.549,0.549,0,1,0,0,1.1h1.123A0.549,0.549,0,1,0,950.306,484.36Zm3.743,0h-1.124a0.549,0.549,0,1,0,0,1.1h1.124A0.549,0.549,0,1,0,954.049,484.359Zm3.7,0h-1.123a0.549,0.549,0,1,0,0,1.1h1.123A0.549,0.549,0,1,0,957.745,484.359Zm-11.182,0H945.44a0.549,0.549,0,1,0,0,1.1h1.123A0.549,0.549,0,1,0,946.563,484.36Zm-3.707,0h-1.123a0.549,0.549,0,1,0,0,1.1h1.123A0.549,0.549,0,1,0,942.856,484.36Zm-3.72,0h-1.123a0.549,0.549,0,1,0,0,1.1h1.123A0.549,0.549,0,1,0,939.136,484.359Zm18.609,2.551h-1.123a0.549,0.549,0,1,0,0,1.1h1.123A0.549,0.549,0,1,0,957.745,486.91Zm-18.609,0h-1.123a0.549,0.549,0,1,0,0,1.1h1.123A0.549,0.549,0,1,0,939.136,486.91ZM962.942,470.2H950.31a1.242,1.242,0,0,1-.721-0.212,0.613,0.613,0,0,1-.17-0.182,0.3,0.3,0,0,1-.045-0.155v-1.1a0.562,0.562,0,0,0-1.123,0v1.1a1.385,1.385,0,0,0,.191.7,1.832,1.832,0,0,0,.778.7,2.46,2.46,0,0,0,1.09.247h12.632a0.942,0.942,0,0,1,.66.269,0.9,0.9,0,0,1,.275.646V473.7a1.164,1.164,0,0,1-.217.7,0.616,0.616,0,0,1-.185.167,0.326,0.326,0,0,1-.159.043h-0.548v-0.042a1.485,1.485,0,0,0-1.5-1.464H934.5a1.485,1.485,0,0,0-1.5,1.464v15.967A1.485,1.485,0,0,0,934.5,492h26.774a1.485,1.485,0,0,0,1.5-1.464V475.709h0.548a1.466,1.466,0,0,0,.712-0.186,1.825,1.825,0,0,0,.719-0.761A2.3,2.3,0,0,0,965,473.7v-1.487A2.039,2.039,0,0,0,962.942,470.2Zm-1.3,20.34a0.375,0.375,0,0,1-.374.366H934.5a0.375,0.375,0,0,1-.374-0.366v-13.43h27.522v13.43Zm0-14.528H934.123v-1.439a0.375,0.375,0,0,1,.374-0.366h26.774a0.374,0.374,0,0,1,.374.366v1.439h0Z" transform="translate(-933 -468)"/>
</svg>
