<svg xmlns="http://www.w3.org/2000/svg" width="15" height="22" viewBox="0 0 15 22">
  <defs>
    <style>
      .cls-1 {
        fill: #8b91dd;
        fill-rule: evenodd;
      }
    </style>
  </defs>
  <path id="Forma_1" data-name="Forma 1" class="cls-1" d="M538.569,379.821a2.814,2.814,0,1,0,2.738,2.812A2.78,2.78,0,0,0,538.569,379.821Zm0,4.821a2.009,2.009,0,1,1,1.955-2.009A1.985,1.985,0,0,1,538.569,384.642Zm5.234-7.385a7.361,7.361,0,0,0-10.606,0,8.959,8.959,0,0,0-.706,10.827L538.5,397l6-8.9A8.964,8.964,0,0,0,543.8,377.257Zm0.062,10.37-5.365,7.959-5.374-7.971a8.1,8.1,0,0,1,.624-9.79,6.593,6.593,0,0,1,9.5,0A8.1,8.1,0,0,1,543.865,387.627Z" transform="translate(-531 -375)"/>
</svg>
