<svg xmlns="http://www.w3.org/2000/svg" width="31.03" height="31" viewBox="0 0 31.03 31">
  <defs>
    <style>
      .cls-1 {
        fill: #fff;
        fill-rule: evenodd;
      }
    </style>
  </defs>
  <path class="cls-1" d="M1415.65,465a12.559,12.559,0,0,0-9.39,20.644l-9.09,9.234a0.645,0.645,0,0,0,0,.924,0.63,0.63,0,0,0,.45.2,0.652,0.652,0,0,0,.46-0.2l9.06-9.2a12.227,12.227,0,0,0,8.51,3.463A12.533,12.533,0,0,0,1415.65,465Zm0,23.744a11.214,11.214,0,1,1,11.05-11.212A11.161,11.161,0,0,1,1415.65,488.744Zm-7.31-15.566a0.618,0.618,0,0,0,.39.132,0.667,0.667,0,0,0,.52-0.264l0.3-.395a0.661,0.661,0,0,0-.13-0.924,0.629,0.629,0,0,0-.91.132l-0.3.4A0.66,0.66,0,0,0,1408.34,473.178Zm2.05,10.125a7.847,7.847,0,0,1-2.53-5.771,7.97,7.97,0,0,1,.26-2.012,0.668,0.668,0,0,0-.46-0.825,0.646,0.646,0,0,0-.81.462,9.033,9.033,0,0,0,2.66,9.135,0.78,0.78,0,0,0,.43.165,0.613,0.613,0,0,0,.48-0.231A0.671,0.671,0,0,0,1410.39,483.3Z" transform="translate(-1396.97 -465)"/>
</svg>
