<svg xmlns="http://www.w3.org/2000/svg" width="19" height="29" viewBox="0 0 19 29">
  <defs>
    <style>
      .cls-1 {
        fill: #fb236a;
        fill-rule: evenodd;
      }
    </style>
  </defs>
  <path id="Forma_1" data-name="Forma 1" class="cls-1" d="M1319.59,473.356a3.715,3.715,0,1,0,3.47,3.707A3.6,3.6,0,0,0,1319.59,473.356Zm0,6.354a2.654,2.654,0,1,1,2.47-2.647A2.569,2.569,0,0,1,1319.59,479.71Zm6.63-9.734a9.077,9.077,0,0,0-13.44,0c-3.32,3.548-3.73,10.226-.89,14.272L1319.5,496l7.6-11.733C1329.95,480.2,1329.54,473.524,1326.22,469.976Zm0.08,13.669-6.8,10.491-6.81-10.507c-2.57-3.671-2.2-9.7.79-12.9a8.132,8.132,0,0,1,12.04,0C1328.51,473.928,1328.88,479.958,1326.3,483.645Z" transform="translate(-1310 -467)"/>
</svg>
