<svg xmlns="http://www.w3.org/2000/svg" width="11" height="17" viewBox="0 0 11 17">
  <defs>
    <style>
      .cls-1 {
        fill: #888;
        fill-rule: evenodd;
      }
    </style>
  </defs>
  <path id="Forma_1" data-name="Forma 1" class="cls-1" d="M1110.55,1723.73a2.176,2.176,0,1,0,2.01,2.17A2.094,2.094,0,0,0,1110.55,1723.73Zm0,3.72a1.555,1.555,0,1,1,1.43-1.55A1.5,1.5,0,0,1,1110.55,1727.45Zm3.84-5.71a5.218,5.218,0,0,0-7.78,0,7.234,7.234,0,0,0-.52,8.37l4.41,6.89,4.4-6.88A7.231,7.231,0,0,0,1114.39,1721.74Zm0.04,8.02-3.93,6.15-3.94-6.16a6.524,6.524,0,0,1,.46-7.57,4.662,4.662,0,0,1,6.96,0A6.521,6.521,0,0,1,1114.43,1729.76Z" transform="translate(-1105 -1720)"/>
</svg>
