<svg xmlns="http://www.w3.org/2000/svg" width="27.03" height="27" viewBox="0 0 27.03 27">
  <defs>
    <style>
      .cls-1 {
        fill: #8b91dd;
        fill-rule: evenodd;
      }
    </style>
  </defs>
  <path id="Forma_1" data-name="Forma 1" class="cls-1" d="M1220.51,608.932l-8.44-8.438a1.692,1.692,0,0,0-1.6-.444,1.728,1.728,0,0,0-.79.444,1.794,1.794,0,0,0-.42.694,7.8,7.8,0,0,1-2.02,3.294,22.984,22.984,0,0,1-4.81,3.339,25.965,25.965,0,0,0-5.5,3.871,11.222,11.222,0,0,0-2.86,4.684,1.7,1.7,0,0,0,.42,1.692l8.44,8.438a1.692,1.692,0,0,0,1.6.444,1.746,1.746,0,0,0,.79-0.444,1.79,1.79,0,0,0,.42-0.695,7.788,7.788,0,0,1,2.02-3.294,23.205,23.205,0,0,1,4.81-3.337,26.01,26.01,0,0,0,5.5-3.873,11.2,11.2,0,0,0,2.86-4.684A1.7,1.7,0,0,0,1220.51,608.932Zm-16.39,16.38c-2.79-2.795-5.64-5.644-8.43-8.437,2.4-7.764,12.79-7.424,15.18-15.188,2.8,2.794,5.65,5.643,8.44,8.437C1216.92,617.887,1206.52,617.549,1204.12,625.312Zm6.39-12.741a2.357,2.357,0,0,0-.83-0.464,2.434,2.434,0,0,0-.84-0.089,2.9,2.9,0,0,0-.84.193c-0.29.111-.57,0.231-0.86,0.37-0.45-.521-0.9-1.036-1.36-1.513a0.985,0.985,0,0,1,.6-0.285,1.871,1.871,0,0,1,.55.056c0.17,0.044.34,0.082,0.49,0.112a0.462,0.462,0,0,0,.4-0.1,0.571,0.571,0,0,0,.2-0.407,0.719,0.719,0,0,0-.2-0.486,1.087,1.087,0,0,0-.65-0.373,2,2,0,0,0-.78.017,2.575,2.575,0,0,0-.76.3,2.869,2.869,0,0,0-.58.428c-0.06-.052-0.11-0.1-0.17-0.155a0.3,0.3,0,0,0-.22-0.085,0.293,0.293,0,0,0-.23.113,0.312,0.312,0,0,0-.08.24,0.287,0.287,0,0,0,.11.213c0.05,0.046.11,0.092,0.16,0.139a3.726,3.726,0,0,0-.53.853,2.869,2.869,0,0,0-.26.9,1.829,1.829,0,0,0,.09.816,1.568,1.568,0,0,0,.5.669,1.94,1.94,0,0,0,1.41.439,4.239,4.239,0,0,0,1.75-.531c0.49,0.576.99,1.147,1.49,1.678a1.283,1.283,0,0,1-.56.313,0.881,0.881,0,0,1-.44-0.009,1.338,1.338,0,0,1-.36-0.176,2.619,2.619,0,0,0-.33-0.2,0.82,0.82,0,0,0-.34-0.085,0.553,0.553,0,0,0-.37.169,0.542,0.542,0,0,0-.21.419,0.736,0.736,0,0,0,.21.477,1.771,1.771,0,0,0,.56.405,2.045,2.045,0,0,0,.76.192,2.12,2.12,0,0,0,.89-0.138,2.647,2.647,0,0,0,.93-0.626c0.14,0.143.29,0.28,0.44,0.412a0.306,0.306,0,0,0,.23.074,0.322,0.322,0,0,0,.23-0.119,0.383,0.383,0,0,0,.08-0.247,0.3,0.3,0,0,0-.11-0.206c-0.15-.119-0.3-0.244-0.44-0.376a4.667,4.667,0,0,0,.6-0.959,2.95,2.95,0,0,0,.27-0.928,1.72,1.72,0,0,0-.1-0.794A1.67,1.67,0,0,0,1210.51,612.571Zm-4.72.573a0.818,0.818,0,0,1-.63-0.246,0.677,0.677,0,0,1-.17-0.272,1.006,1.006,0,0,1-.03-0.352,1.025,1.025,0,0,1,.12-0.393,1.48,1.48,0,0,1,.27-0.395c0.43,0.425.85,0.891,1.28,1.374A1.979,1.979,0,0,1,1205.79,613.144Zm3.98,1.689a1.678,1.678,0,0,1-.27.374c-0.47-.478-0.94-1-1.42-1.541,0.13-.054.25-0.111,0.39-0.168a1.922,1.922,0,0,1,.41-0.119,1.1,1.1,0,0,1,.42.018,0.855,0.855,0,0,1,.38.226,0.781,0.781,0,0,1,.23.375,1.139,1.139,0,0,1,.01.412A1.443,1.443,0,0,1,1209.77,614.833Zm-3.35,3.881h0a14.225,14.225,0,0,0-1.52,1.31,12.174,12.174,0,0,0-1.24,1.434l-0.57.788v0a0.422,0.422,0,0,0,.05.529,0.427,0.427,0,0,0,.6,0,0.4,0.4,0,0,0,.07-0.085l0.54-.738a11.689,11.689,0,0,1,1.14-1.334,14.6,14.6,0,0,1,1.45-1.244h0c0.01-.012.03-0.022,0.04-0.035A0.42,0.42,0,0,0,1206.42,618.714Zm3.09-12.205a13.562,13.562,0,0,1-1.42,1.218,0.521,0.521,0,0,0-.1.072,0.439,0.439,0,0,0,0,.6,0.425,0.425,0,0,0,.59.012v0a14.457,14.457,0,0,0,1.52-1.31,13.261,13.261,0,0,0,1.24-1.432l0.57-.792h0a0.426,0.426,0,0,0-.02-0.577,0.422,0.422,0,0,0-.6,0,0.5,0.5,0,0,0-.08.1l-0.56.767A11.52,11.52,0,0,1,1209.51,606.509Z" transform="translate(-1193.97 -600)"/>
</svg>
