<svg xmlns="http://www.w3.org/2000/svg" width="19" height="19" viewBox="0 0 19 19">
  <defs>
    <style>
      .cls-1 {
        fill: #fb236a;
        fill-rule: evenodd;
      }
    </style>
  </defs>
  <path id="Forma_1" data-name="Forma 1" class="cls-1" d="M1109.43,319a5.576,5.576,0,0,0-5.57,5.569,5.471,5.471,0,0,0,.8,2.86l-8.48,8.469a0.657,0.657,0,0,0,.93.927l1.18-1.175,2.15,2.158a0.659,0.659,0,0,0,.93,0,0.648,0.648,0,0,0,0-.927l-2.16-2.157,0.71-.712,1.51,1.5a0.645,0.645,0,0,0,.46.192,0.629,0.629,0,0,0,.46-0.192,0.648,0.648,0,0,0,0-.927l-1.5-1.5,0.71-.712,2.16,2.158a0.656,0.656,0,0,0,.93-0.926l-2.16-2.158,2.97-2.973A5.569,5.569,0,1,0,1109.43,319Zm0,9.827a4.259,4.259,0,1,1,4.26-4.258A4.263,4.263,0,0,1,1109.43,328.827Z" transform="translate(-1096 -319)"/>
</svg>
