<svg xmlns="http://www.w3.org/2000/svg" width="23" height="23.031" viewBox="0 0 23 23.031">
  <defs>
    <style>
      .cls-1 {
        fill: #fb236a;
        fill-rule: evenodd;
      }
    </style>
  </defs>
  <path id="Forma_1" data-name="Forma 1" class="cls-1" d="M1118.01,547.926a1.774,1.774,0,0,0-.88-1.309l-5.68-3.27a1.774,1.774,0,0,0-2.14.284l-1.12,1.119a0.828,0.828,0,0,1-1.1.061,32.824,32.824,0,0,1-4.9-4.9,0.82,0.82,0,0,1,.06-1.1l1.12-1.119a1.779,1.779,0,0,0,.28-2.146l-3.27-5.679a1.779,1.779,0,0,0-2.8-.371l-1.68,1.686c-1.18,1.177-1.2,3.328-.06,6.06a29.676,29.676,0,0,0,13.92,13.913,9.462,9.462,0,0,0,3.56.843,3.412,3.412,0,0,0,2.5-.9l1.68-1.685A1.764,1.764,0,0,0,1118.01,547.926Zm-6.93-3.933,5.68,3.271a1.022,1.022,0,0,1,.51.76,1.094,1.094,0,0,1-.19.749l-7.55-4.308,0.3-.307A1.042,1.042,0,0,1,1111.08,543.993Zm-12.1-14.261a1.042,1.042,0,0,1,.76.509l3.27,5.68a1.039,1.039,0,0,1-.17,1.246l-0.28.281-4.33-7.523a1.031,1.031,0,0,1,.61-0.2A1.224,1.224,0,0,1,1098.98,529.732Zm16.31,20.844c-0.94.935-2.85,0.895-5.25-.108a28.981,28.981,0,0,1-13.51-13.512c-1-2.4-1.04-4.31-.11-5.245l1.26-1.251,4.33,7.535-0.29.291a1.574,1.574,0,0,0-.11,2.09,31.782,31.782,0,0,0,2.37,2.641,33.679,33.679,0,0,0,2.64,2.375,1.563,1.563,0,0,0,2.09-.115l0.27-.265,7.56,4.314Z" transform="translate(-1095 -528.969)"/>
</svg>
