<svg xmlns="http://www.w3.org/2000/svg" width="26" height="26" viewBox="0 0 26 26">
  <defs>
    <style>
      .cls-1 {
        fill: #8b91dd;
        fill-rule: evenodd;
      }
    </style>
  </defs>
  <path id="Forma_1" data-name="Forma 1" class="cls-1" d="M1197.71,772.3V753.481a0.46,0.46,0,1,0-.92,0V772.3A3.252,3.252,0,1,0,1197.71,772.3Zm-0.46,5.739a2.409,2.409,0,1,1,2.32-2.407A2.367,2.367,0,0,1,1197.25,778.037Zm10.21-15.554v-9a0.46,0.46,0,1,0-.92,0v8.971a3.485,3.485,0,0,0,0,6.9v9.17a0.461,0.461,0,1,0,.92,0v-9.2A3.488,3.488,0,0,0,1207.46,762.483Zm-0.56,5.924a2.509,2.509,0,1,1,2.42-2.507A2.462,2.462,0,0,1,1206.9,768.407ZM1220,756.37a3.252,3.252,0,1,0-3.71,3.332v18.816a0.461,0.461,0,1,0,.92,0V759.7A3.332,3.332,0,0,0,1220,756.37Zm-3.25,2.408a2.409,2.409,0,1,1,2.32-2.408A2.367,2.367,0,0,1,1216.75,758.778Z" transform="translate(-1194 -753)"/>
</svg>
