<svg xmlns="http://www.w3.org/2000/svg" width="15" height="15" viewBox="0 0 15 15">
  <defs>
    <style>
      .cls-1 {
        fill: #fb236a;
        fill-rule: evenodd;
      }
    </style>
  </defs>
  <path id="Forma_1" data-name="Forma 1" class="cls-1" d="M1385.6,44a4.389,4.389,0,0,0-3.77,6.655l-6.69,6.687a0.521,0.521,0,0,0,0,.731,0.528,0.528,0,0,0,.74,0l0.92-.928,1.71,1.7a0.5,0.5,0,0,0,.36.152,0.511,0.511,0,0,0,.37-0.152,0.521,0.521,0,0,0,0-.731l-1.7-1.7,0.56-.562,1.18,1.186a0.528,0.528,0,0,0,.74,0,0.521,0.521,0,0,0,0-.732l-1.19-1.186,0.56-.562,1.71,1.7a0.5,0.5,0,0,0,.36.152,0.527,0.527,0,0,0,.37-0.152,0.521,0.521,0,0,0,0-.732l-1.71-1.7,2.35-2.347A4.4,4.4,0,1,0,1385.6,44Zm0,7.759a3.362,3.362,0,1,1,3.37-3.362A3.367,3.367,0,0,1,1385.6,51.759Z" transform="translate(-1375 -44)"/>
</svg>
