<svg xmlns="http://www.w3.org/2000/svg" width="43.969" height="45" viewBox="0 0 43.969 45">
  <defs>
    <style>
      .cls-1 {
        fill: #647585;
        fill-rule: evenodd;
      }
    </style>
  </defs>
  <path id="Forma_1" data-name="Forma 1" class="cls-1" d="M950.55,4407.98h13.48v1.45H950.55v-1.45Zm0,30.48h22.7v1.46h-22.7v-1.46Zm14.181-13.06h1.42a6.466,6.466,0,0,1,6.38-6.53v-1.45A7.893,7.893,0,0,0,964.731,4425.4Zm25.209,13.4-6.518-6.67-1,1.03-0.805-.83a11.7,11.7,0,0,0-4.822-17.68v-4.78l-9.635-9.87H947v44.99H976.79v-8.84a12.583,12.583,0,0,0,1.68-.87l0.943,0.96-1,1.03,6.519,6.67a3.533,3.533,0,0,0,5.012,0A3.7,3.7,0,0,0,989.94,4438.8Zm-22.37-36.32,6.8,6.95h-6.8v-6.95Zm7.8,41.06H948.421v-42.09h17.73v9.43h9.219v3.29a10.985,10.985,0,0,0-8.319,1.07h-16.5v1.45h14.51a11.738,11.738,0,0,0-3.5,5.81H950.55v1.45h10.735a11.515,11.515,0,0,0-.095,1.45,11.771,11.771,0,0,0,.84,4.36H950.55v1.45h12.172a11.311,11.311,0,0,0,9.809,5.8,11.116,11.116,0,0,0,2.839-.38v6.91Zm-2.839-7.98a10.163,10.163,0,1,1,9.93-10.16A10.063,10.063,0,0,1,972.531,4435.56Zm8.164-2.11,0.727,0.74-1,1.02-0.762-.78A12.98,12.98,0,0,0,980.7,4433.45Zm-0.277,3.82,3.012-3.08,5.013,5.12-3.013,3.09Zm8.518,5.64a2.139,2.139,0,0,1-2.407.42l2.823-2.89A2.208,2.208,0,0,1,988.936,4442.91Z" transform="translate(-947 -4400)"/>
</svg>
