<svg xmlns="http://www.w3.org/2000/svg" width="43" height="43" viewBox="0 0 43 43">
  <defs>
    <style>
      .cls-1 {
        fill: #647585;
        fill-rule: evenodd;
      }
    </style>
  </defs>
  <path class="cls-1" d="M565.6,4403.01a6.187,6.187,0,0,0-4.591-2.01h-5a6.185,6.185,0,0,0-4.591,2.01,6.338,6.338,0,0,0-1.687,4.76l0.222,3.45,0.52,8.06a8.092,8.092,0,0,0,4.155,6.6,7.9,7.9,0,0,0,7.764,0,8.1,8.1,0,0,0,4.155-6.6l0.594-9.21h0l0.148-2.3A6.346,6.346,0,0,0,565.6,4403.01Zm-14.161,4.65a4.6,4.6,0,0,1,1.227-3.46,4.494,4.494,0,0,1,3.34-1.47h5c0.111,0,.221.01,0.33,0.01l-1.325,3.58a6.346,6.346,0,0,1-1.854,1.8,13.8,13.8,0,0,1-6.555,2.12Zm13.4,11.5a6.41,6.41,0,0,1-3.271,5.21,6.245,6.245,0,0,1-6.112-.01,6.382,6.382,0,0,1-3.272-5.2l-0.464-7.19c4.826-.45,7.458-2.23,8.755-3.52a4.792,4.792,0,0,0,1.483,1.11,16.761,16.761,0,0,0,3.427,1.13Zm0.742-11.5-0.082,1.28a13.928,13.928,0,0,1-2.754-.92,1.929,1.929,0,0,1-1.151-1.01,0.016,0.016,0,0,1,0-.01h0l1.411-3.81a4.414,4.414,0,0,1,1.345,1.01A4.6,4.6,0,0,1,565.576,4407.66ZM580,4442.98l-0.829-4.63a12.844,12.844,0,0,0-3.523-6.8,12.609,12.609,0,0,0-6.631-3.54h0a12.469,12.469,0,0,0-2.36-.23h-2.5a0.829,0.829,0,0,0-.606.26l-5.049,5.1-5.049-5.1a0.829,0.829,0,0,0-.606-0.26h-2.5a12.469,12.469,0,0,0-2.36.23h0a12.533,12.533,0,0,0-6.63,3.54,12.845,12.845,0,0,0-3.524,6.8l-0.828,4.63a0.875,0.875,0,0,0,.185.71,0.844,0.844,0,0,0,.658.31h41.3a0.842,0.842,0,0,0,.657-0.31A0.88,0.88,0,0,0,580,4442.98Zm-20.887-8,5.4-5.46h2.473l-4.242,4.29-4.241,4.29-1.239-1.25Zm-8.756-5.46h2.14l4.8,4.85-1.239,1.25-1.791-1.81-4.241-4.29h0.333Zm-11.474,12.75,0.646-3.61a11.134,11.134,0,0,1,8.348-8.86l10.024,10.14a0.859,0.859,0,0,0,1.212,0l10.023-10.14a11.135,11.135,0,0,1,8.349,8.86l0.645,3.61H538.883Z" transform="translate(-537 -4401)"/>
</svg>
