<svg xmlns="http://www.w3.org/2000/svg" width="17" height="21" viewBox="0 0 17 21">
  <defs>
    <style>
      .cls-1 {
        fill: #fb236a;
        fill-rule: evenodd;
      }
    </style>
  </defs>
  <path class="cls-1" d="M1110.05,261.32l-0.06-.024c-0.12-.059-0.25-0.113-0.38-0.165s-0.28-.111-0.42-0.161c-0.12-.038-0.23-0.074-0.35-0.109-0.17-.052-0.35-0.1-0.53-0.141l-0.19-.038-0.05-.008c-0.1-.022-0.21-0.041-0.32-0.058l-0.03,0h-0.01l-0.03,0c-0.09-.014-0.18-0.027-0.28-0.038l-0.32-.028a8.292,8.292,0,0,0-1.19,0l-0.12.01-0.05,0-0.13.012c-0.13.013-.25,0.031-0.37,0.051l-0.04,0c-0.08.014-.16,0.03-0.24,0.046s-0.18.035-.27,0.055c-0.18.04-.35,0.085-0.52,0.135-0.13.039-.26,0.082-0.38,0.126l-0.09.031c-0.26.095-.52,0.2-0.77,0.324l-0.07.033v0a8.782,8.782,0,0,0-4.84,7.864,1.732,1.732,0,0,0,.01.228l0.02,0.53h16.94l0.02-.524a1.824,1.824,0,0,0,.01-0.234A8.759,8.759,0,0,0,1110.05,261.32Zm-11.22,7.828a7.908,7.908,0,0,1,4.4-7.018l0.08-.035,0.01-.009c0.21-.1.42-0.185,0.64-0.263l0.07-.025c0.11-.042.23-0.081,0.35-0.116,0.15-.046.31-0.086,0.46-0.122,0.08-.017.16-0.034,0.25-0.05l0.19-.036,0.04-.006c0.11-.019.23-0.036,0.35-0.049l0.27-.025a7.208,7.208,0,0,1,1.11,0l0.27,0.023c0.06,0.008.13,0.017,0.2,0.028l0.1,0.014q0.15,0.022.3,0.051l0.04,0.009c0.06,0.011.12,0.022,0.17,0.034,0.16,0.037.32,0.08,0.48,0.127,0.11,0.032.21,0.064,0.31,0.1q0.195,0.066.39,0.144c0.12,0.049.24,0.1,0.36,0.157l0.02,0.01a7.919,7.919,0,0,1,4.48,7.057h-15.34Zm5.62-9.7a1.886,1.886,0,0,0,.19.073l0.13,0.051c0.06,0.02.11,0.04,0.16,0.057a5.168,5.168,0,0,0,1.54.247h0.04c0.18,0,.36-0.01.54-0.028,0.06-.006.11-0.015,0.17-0.026l0.13-.02c0.08-.009.15-0.021,0.23-0.036,0.05-.011.1-0.025,0.15-0.039l0.14-.037c0.07-.018.14-0.035,0.21-0.057,0.04-.014.09-0.031,0.13-0.047l0.11-.042c0.08-.029.17-0.059,0.25-0.094q0.045-.021.09-0.045l0.04-.019c0.11-.051.22-0.1,0.34-0.165l0.07-.044c0.12-.073.25-0.148,0.37-0.236a1.9,1.9,0,0,0,.19-0.146l0.21-.17a5.429,5.429,0,0,0,1.93-4.141v-0.046a5.293,5.293,0,0,0-10.58-.342l-0.01.071c0,0.09-.01.18-0.01,0.271A5.432,5.432,0,0,0,1104.45,259.446Zm-2.4-5.222,0.01-.077a4.462,4.462,0,0,1,8.92.251v0.045a4.646,4.646,0,0,1-1.63,3.53l-0.2.154c-0.04.037-.09,0.073-0.14,0.113-0.1.07-.21,0.132-0.31,0.194l-0.06.037c-0.09.05-.19,0.093-0.29,0.138l-0.11.055a1.886,1.886,0,0,1-.19.073l-0.14.051a0.45,0.45,0,0,1-.08.03c-0.05.016-.1,0.028-0.15,0.041l-0.17.044c-0.03.01-.07,0.02-0.1,0.027-0.06.011-.11,0.018-0.17,0.026l-0.16.025c-0.03.006-.07,0.013-0.12,0.018a3.863,3.863,0,0,1-.41.024h-0.04a4.372,4.372,0,0,1-1.33-.208c-0.04-.011-0.07-0.026-0.11-0.04l-0.16-.059c-0.04-.017-0.09-0.034-0.14-0.054a4.582,4.582,0,0,1-2.73-4.225C1102.04,254.365,1102.05,254.294,1102.05,254.224Z" transform="translate(-1098 -249)"/>
</svg>
