<svg xmlns="http://www.w3.org/2000/svg" width="24" height="13" viewBox="0 0 24 13">
  <defs>
    <style>
      .cls-1 {
        fill: #8b91dd;
        fill-rule: evenodd;
      }
    </style>
  </defs>
  <path id="Forma_1" data-name="Forma 1" class="cls-1" d="M894,418c-5.856,0-11.526,5.646-11.753,5.9a0.862,0.862,0,0,0,0,1.208c0.248,0.25,5.9,5.9,11.753,5.9s11.526-5.646,11.753-5.9a0.862,0.862,0,0,0,0-1.208C905.526,423.646,899.876,418,894,418Zm0,11.271c-4.1,0-8.33-3.375-9.918-4.792,1.588-1.417,5.815-4.792,9.918-4.792s8.33,3.375,9.918,4.792C902.33,425.9,898.1,429.271,894,429.271Zm-3.031-4.792a3.052,3.052,0,1,0,3.052-3.083A3.074,3.074,0,0,0,890.969,424.479Zm4.392,0A1.361,1.361,0,1,1,894,423.1,1.394,1.394,0,0,1,895.361,424.479Z" transform="translate(-882 -418)"/>
</svg>
